<svg width="24" height="24" xmlns="http://www.w3.org/2000/svg" fill="#a8b2d1">
  <path d="M.8 12.2H.7a1 1 0 0 1-.4-.5c-.2-.2-.2-.5-.2-.7v-.2l.1-.5.1-.2.2-.2v-.4A2 2 0 0 1 .4 9v-.1l.1-.6.1-.1.3-.2.2-.3v-.3c0-.3.1-.5.3-.7l.3-.2.1-.2V6h.6v-.2l.5-.4v-.7c-.1 0 0-.1 0-.2 0 0 .2 0 .2.2.1.2.3.2.4.2l.5-.1h.3c.3 0 .4-.2.5-.4 0-.3.1-.5.3-.7l.5-.4c.3-.1.4-.3.5-.6 0-.3.2-.5.4-.7l.8-.4.2-.1.4-.3.2-.3.3-.2H9c.2 0 .4 0 .6.2h.3l.1-.1.4-.5h.8c.1.2.3.2.5.2h.7l.2.1.4-.1h.1c0 .2.2.4.4.4h.1l.4.4.4.4h.1c.1.2.2.2.4.2h.6c.2 0 .4 0 .7.2h1.7l.6.3.3.4.4.2h1l.3.4.1.1c.2.2.2.3.2.5s.1.3.3.3h.2l.3.3.1.2.3.6v.3l.1.2h.1l.2.5v.4l-.1.2.1.3c.2.1.2.3.3.4v.2l-.1.3-.1.3v.2c0 .2 0 .3.2.4l.2.5v.8l.1.3.1.2.2.1.5.5v1.7l.2.5v.6l-.3.4-.3.2v1l-.2.4c0 .2-.1.3-.3.3l-.1.1-.1.3-.1.2-.2.2a1 1 0 0 1-.4.3l-.3.3-.2.4c0 .2-.2.3-.4.3h-.5l-.3.2-.3.4-.2.4s0 .2-.2.1l-.3.1-.4.5c-.2.2-.3.2-.5.2s-.3.1-.3.2v.4l-.2.3-.3.5a1 1 0 0 1-.5.4 2 2 0 0 1-.7.1h-.1c-.1 0-.2 0-.3.2l-.1.2-.1.2-.5.4h-.8a1 1 0 0 1-.4-.1l-.3.1-.3.3H12c-.1-.1-.2-.2-.3-.1H11l-.3-.1a.6.6 0 0 1-.3-.3l-.3-.2H10a.8.8 0 0 1-.5-.2l-.4-.4-.1-.1-.3-.2-.6-.3h-.6l-.2-.1H7a.5.5 0 0 1-.3-.3s-.1-.1-.2 0h-.7a1.5 1.5 0 0 1-1.3-.5.8.8 0 0 0-.5-.3l-.3-.1-.6-.2a1 1 0 0 1-.4-.5v-.5l-.4-.5c-.3 0-.4-.1-.6-.3a.7.7 0 0 1-.2-.5v-.4c0-.2 0-.4-.2-.5a.6.6 0 0 1-.2-.4v-.4l-.1-.7c0-.3 0-.5.2-.6.2-.1.2-.3.2-.4h-.1a.8.8 0 0 0-.3-.3l-.1-.1v-1.8l-.1-.3zm9.9-1.3v-.3a1 1 0 0 1-.3-.2v-.2l-.3-.3a.9.9 0 0 1-.3-.4v-.3l.2-.4-.1-.4-.1-.2v-.4l.2-.4v-1c0-.2.2-.4.3-.5l.1-.1.1-.2c.2 0 .2-.2.1-.3V5c0-.2 0-.4.2-.6l.6-.4.3-.1.2-.3.1-.4.4-.6v-.2c0-.2 0-.4-.2-.4H11l-.8.1c-.2 0-.3.1-.3.2 0 .2 0 .3-.2.3l-.4.1-.4.2c-.2 0-.4.2-.5.4v.2l-.5.5c-.2.1-.3.3-.3.6l-.2.6c-.2.2-.2.3-.1.4v.9c0 .2 0 .3-.2.3l-.2.3v.2c-.1.2 0 .4.1.5.2.2.3.3.3.6v.1c0 .2.2.4.3.5.2.2.4.3.4.5v.2c.2.2.3.4.5.4h.1c.2 0 .4 0 .5.2 0 .2.2.3.4.3l.3.1.4.3h.4v-.1zm1.1-1c.1.1.2 0 .2 0l.3-.5.2-.3.3-.3.4-.2c.1 0 .2 0 .3-.2 0-.1 0-.3.2-.4l.4-.2h.6l.3-.2.3-.2.6-.2h.5c.1.1.3.1.4 0l.5-.2h.7c.2 0 .4 0 .5.2l.5.2h.3l.1-.1h.5l.2.1.5.2c.2 0 .2 0 .2-.2v-.2l-.1-.2-.2-.4v-.4l-.1-.2h-.1a.8.8 0 0 1-.4-.3h-.1a.9.9 0 0 1-.2-.5l-.3-.2h-.4a.6.6 0 0 1-.4-.2l-.2-.4c0-.1-.2-.2-.3-.1h-.9l-.4-.1h-.1l-.3-.2h-.2l-.4.3H15l-.3.1-.2.2-.3.1-.4.2h-.5c-.2 0-.3.2-.4.4v.2l-.2.5-.4.2h-.1c-.1 0-.2 0-.2.2V7l-.4.4c-.1 0-.1.1 0 .2v.6l-.2.3v.3l.1.3v.6s0 .2.2.2zm7.9 7.3c.1 0 .3.1.4 0h.2l.2-.4v-.3l.2-.1v-.1c0-.2.1-.2.2-.2.2 0 .2-.2.2-.2l.1-.3.3-.3.1-.3v-.3l-.1-.3v-.9l.2-.3-.1-.2-.3-.3v-1.1c0-.2-.2-.3-.4-.3s-.3 0-.5-.2V11l-.3-.2-.2-.3-.3-.4a.8.8 0 0 0-.4-.2H19a1 1 0 0 1-.4-.2h-.3v.2H18v-.5c0-.1 0-.2-.1-.1h-.2l-.5-.1H17l-.3-.2-.3.1-.5.2h-.3l-.4.1-.4.2h-.3a1 1 0 0 0-.4.2l-.3.2c-.2 0-.4.2-.5.3l-.1.1v.3c0 .1.2.2.3.1h.4l.2.1h.7l.4.2.4.2h.5l.3.3v.3l.3.2h.5l.1.1.3.2.1.3v.2l.1.4c0 .2 0 .3.2.3l.3.1.4.3v.1l.3.5v.1l-.1.5.1.3h.1c.2 0 .3.2.4.3l.1.5v.6s-.1.1 0 .2v.1zM13.3 12v.7c0 .2.2.3.3.4.2.2.3.3.3.5v.8c.2.2.2.3.2.5v.5l-.1.3h-.1l-.1.1v1l-.2.5v.2l-.3.2-.2.2v.3l-.3.6-.5.4-.1.1-.3.2-.2.2v.3c0 .2-.1.4-.3.5l-.1.2-.1.1-.2.2-.5.2-.4-.1h-.3l-.1.1.3.2h.2l.3.2.4.1h.5l.5.1h.3l.2-.1.5-.1h.4c.1.1.2 0 .2 0l.2-.2.3-.1.1-.2.5-.1h.3l.3-.3.2-.4.3-.4.4-.1c.2 0 .4-.2.4-.4v-1l.3-.3.2-.3h.1v-.4a.7.7 0 0 1-.2-.4v-.5l.3-.5v-.3l-.2-.1a.7.7 0 0 1-.3-.5v-.6l-.3-.4a1 1 0 0 1-.4-.7l-.1-.1-.1-.1h-.2l-.3-.2a.6.6 0 0 1-.3-.1c0-.1-.2-.1-.2 0h-.3l-.1-.5h-.2L14 12l-.2.1v.1h-.2l-.2-.2zm-1.2 1c-.1-.1-.1-.1-.2 0l-.2.3c0 .2-.1.3-.2.2h-.1c-.2 0-.3.2-.3.3 0 .2 0 .4-.2.5-.1.2-.3.3-.4.3h-.1c-.1 0-.2.1-.2.3l-.1.2-.1.1c-.2.2-.3.2-.5.2l-.5.1-.4.2c-.1.2-.3.3-.4.3H6.8v.1c-.2.2-.4.2-.6.2h-.6l-.3-.2-.2-.2-.3-.3h-.2L4 16h-.3a.5.5 0 0 0-.4-.1h-.1L3 16v.2c.1.1.1.3 0 .4v.3h.1l.3.4.3.3.2.3.3.2.4.1.3.3h.3l.2.1c0 .2 0 .3.2.4h.5l.4.3h.1s.2-.1.1-.2v-.3c0-.1 0-.2.2-.3l.1.1v.2l.1.3c.1.1.3.1.4 0h1.2c.2 0 .3-.2.5-.3l.3-.3.4-.1h.4c.2 0 .4-.2.4-.4v-.2c0-.1 0-.3.2-.4l.3-.2h.1c.2 0 .3-.2.4-.4v-.3c0-.2.2-.4.3-.5.2-.1.2-.3.1-.4v-.1a.3.3 0 0 1 0-.4l.1-.4.1-.1v-.3l-.1-.3v-.9zm-1.4-.8c0-.1 0-.2-.2-.2H9l-.3-.1-.2-.1-.4-.2a.8.8 0 0 1-.5-.4l-.1-.1c0-.2-.2-.2-.4-.2h-.5v-.1c-.3-.1-.5-.3-.5-.6V10l-.3-.3-.4-.2L5 9V7.5l-.2-.1a.7.7 0 0 1-.3-.5v-.7c0-.2 0-.2-.2-.2-.1 0-.2 0-.3.2l-.2.3-.3.3c-.2.2-.2.3-.2.5l-.2.4-.2.4-.2.3V9l-.1.6.1.4.4.1.1.1v.1H3l-.1.2v.1l-.2.6v.3l.1.1.3.1.3.2v.1l.2.1.2.3v.4l.3.3h.1l.3.1.4.3.3.3c.1.2.3.2.4.2h.9l.3.2h.4l.3-.2h.8l.2-.2.3-.2h.5c.1 0 .2 0 .3-.2l.2-.2h.2c.1 0 .2 0 .2-.2 0 0 0-.2.2-.2l.1-.2.2-.3z"/>
</svg>
