<svg height="512" viewBox="0 0 496.231 496.231" width="512" xmlns="http://www.w3.org/2000/svg" fill="#a8b2d1">
    <path
        d="M389.145 0h-282c-26.468 0-48 21.533-48 48 0 356.953-.389 335.402.829 339.058a16.094 16.094 0 003.831 6.227c.998 1.002 98.184 98.301 99.598 99.387 6.322 4.869-3.396 3.328 225.742 3.328 26.468 0 48-21.533 48-48V48c0-26.467-21.532-48-48-48zm-232 441.373L113.772 398h43.373zm248 6.627c0 8.822-7.178 16-16 16h-200v-82c0-8.836-7.163-16-16-16h-82V48c0-8.822 7.178-16 16-16h282c8.822 0 16 7.178 16 16zm-51-125c0 8.836-7.163 16-16 16h-181c-8.837 0-16-7.164-16-16s7.163-16 16-16h181c8.837 0 16 7.164 16 16zm0 82c0 8.836-7.163 16-16 16h-103c-8.837 0-16-7.164-16-16s7.163-16 16-16h103c8.837 0 16 7.164 16 16zM247.489 168.077c29.694 0 53.852-24.158 53.852-53.852s-24.157-53.852-53.852-53.852-53.852 24.158-53.852 53.852 24.158 53.852 53.852 53.852zm0-75.704c12.049 0 21.852 9.803 21.852 21.852s-9.803 21.852-21.852 21.852-21.852-9.803-21.852-21.852 9.803-21.852 21.852-21.852zM166.47 246.451v-21.938c0-13.835 8.163-26.42 20.797-32.062l25.376-11.331c4.255-1.9 1.275-1.39 62.806-1.39 4.498 0 4.344.417 31.899 12.72 12.634 5.642 20.797 18.227 20.797 32.062v21.938c0 8.836-7.163 16-16 16s-16-7.164-16-16v-21.938a3.116 3.116 0 00-1.844-2.842l-22.263-9.94h-49.462l-22.263 9.94a3.117 3.117 0 00-1.844 2.842v21.938c0 8.836-7.163 16-16 16s-15.999-7.163-15.999-15.999z" />
    </svg>